<?xml version="1.0" encoding="UTF-8"?>
<svg xmlns="http://www.w3.org/2000/svg" id="Layer_1" data-name="Layer 1" viewBox="0 0 24 24">
  <path d="M23.5,11.5h-1.5V5.5c0-1.378-1.122-2.5-2.5-2.5s-2.5,1.122-2.5,2.5v6H7V5.5c0-1.378-1.122-2.5-2.5-2.5s-2.5,1.122-2.5,2.5v6H.5c-.276,0-.5,.224-.5,.5s.224,.5,.5,.5h1.5v6c0,1.379,1.122,2.5,2.5,2.5s2.5-1.121,2.5-2.5v-6h10v6c0,1.379,1.122,2.5,2.5,2.5s2.5-1.121,2.5-2.5v-6h1.5c.276,0,.5-.224,.5-.5s-.224-.5-.5-.5ZM6,18.5c0,.827-.673,1.5-1.5,1.5s-1.5-.673-1.5-1.5V5.5c0-.827,.673-1.5,1.5-1.5s1.5,.673,1.5,1.5v13Zm15,0c0,.827-.673,1.5-1.5,1.5s-1.5-.673-1.5-1.5V5.5c0-.827,.673-1.5,1.5-1.5s1.5,.673,1.5,1.5v13Z"/>
</svg>
